<svg width="206" height="43" viewBox="0 0 206 43" fill="none" xmlns="http://www.w3.org/2000/svg">
<path fill-rule="evenodd" clip-rule="evenodd" d="M21.4806 0.55336C21.2794 0.21267 20.9082 0.00200266 20.5057 1.4197e-05C20.1032 -0.00197414 19.7299 0.205015 19.5251 0.543699L15.845 6.63066C15.5269 7.15688 15.7054 7.83553 16.2438 8.14648C16.7822 8.45743 17.4766 8.28292 17.7947 7.7567L20.4886 3.30095L37.9064 32.7866H14.2722L14.2722 23.3043C14.924 24.1652 15.5719 24.8724 16.2578 25.447C17.7102 26.664 19.2602 27.2291 21.1774 27.5172C21.7955 27.6101 22.3736 27.1956 22.4686 26.5915C22.5636 25.9873 22.1396 25.4223 21.5215 25.3294C19.9044 25.0865 18.7836 24.648 17.7318 23.7666C16.6729 22.8794 15.6208 21.4918 14.2722 19.2111V17.7707C14.924 18.6316 15.5719 19.3388 16.2578 19.9135C17.7102 21.1304 19.2602 21.6955 21.1774 21.9836C21.7955 22.0765 22.3736 21.662 22.4686 21.0579C22.5636 20.4538 22.1396 19.8887 21.5215 19.7959C19.9044 19.5529 18.7836 19.1144 17.7318 18.233C16.6729 17.3458 15.6208 15.9582 14.2722 13.6775V12.7903C14.924 13.6512 15.5719 14.3583 16.2578 14.933C17.7102 16.15 19.2602 16.7151 21.1774 17.0032C21.7955 17.096 22.3736 16.6816 22.4686 16.0774C22.5636 15.4733 22.1396 14.9083 21.5215 14.8154C19.9044 14.5724 18.7836 14.1339 17.7318 13.2526C16.6369 12.3351 15.5492 10.8827 14.1334 8.46087L14.1261 8.44815C14.0763 8.36169 14.0142 8.28121 13.9407 8.20944C13.8678 8.13808 13.786 8.07777 13.6982 8.02925C13.619 7.98528 13.5338 7.95038 13.4442 7.92599C13.3439 7.89857 13.2415 7.88528 13.1399 7.88538C13.0412 7.88529 12.9418 7.89783 12.8442 7.92368C12.7476 7.94915 12.6561 7.98681 12.5715 8.03487C12.4875 8.08241 12.4092 8.14085 12.339 8.20952C12.2704 8.27654 12.2117 8.35116 12.1637 8.43115C12.1574 8.44154 12.1513 8.45203 12.1454 8.46264C10.7301 10.8834 9.64267 12.3354 8.54802 13.2526C7.49617 14.1339 6.37541 14.5724 4.75834 14.8154C4.14023 14.9083 3.71617 15.4733 3.8112 16.0774C3.90622 16.6816 4.48433 17.096 5.10245 17.0032C7.0196 16.7151 8.56965 16.15 10.022 14.933C10.7079 14.3583 11.3558 13.6512 12.0075 12.7903V13.6776C10.659 15.9583 9.60686 17.3458 8.54802 18.233C7.49617 19.1144 6.37541 19.5529 4.75834 19.7959C4.14023 19.8887 3.71617 20.4538 3.8112 21.0579C3.90622 21.662 4.48433 22.0765 5.10245 21.9836C7.0196 21.6955 8.56965 21.1304 10.022 19.9135C10.7079 19.3388 11.3558 18.6317 12.0075 17.7708V19.2112C10.659 21.4919 9.60686 22.8794 8.54802 23.7666C7.49617 24.648 6.37541 25.0865 4.75834 25.3294C4.14023 25.4223 3.71617 25.9873 3.8112 26.5915C3.90622 27.1956 4.48433 27.6101 5.10245 27.5172C7.0196 27.2291 8.56965 26.664 10.022 25.447C10.7079 24.8724 11.3558 24.1653 12.0075 23.3044V32.7866H3.14514L4.76566 30.1793C5.09035 29.657 4.92028 28.9762 4.3858 28.6589C3.85131 28.3415 3.15482 28.5078 2.83013 29.0301L0.164578 33.3187C-0.0478046 33.6604 -0.0551157 34.0875 0.145452 34.4359C0.34602 34.7844 0.723283 35 1.13235 35H39.8677C40.2722 35 40.646 34.7891 40.8483 34.4466C41.0506 34.1042 41.0506 33.6823 40.8483 33.3399L21.4806 0.55336Z" fill="#45536D"/>
<path d="M62.3164 28.3965H66.4043C66.3223 29.7363 65.9531 30.9258 65.2969 31.9648C64.6497 33.0039 63.7428 33.8151 62.5762 34.3984C61.4186 34.9818 60.0241 35.2734 58.3926 35.2734C57.1165 35.2734 55.9727 35.0547 54.9609 34.6172C53.9492 34.1706 53.0833 33.5326 52.3633 32.7031C51.6523 31.8737 51.11 30.8711 50.7363 29.6953C50.3626 28.5195 50.1758 27.2025 50.1758 25.7441V24.3633C50.1758 22.9049 50.3672 21.5879 50.75 20.4121C51.1419 19.2272 51.6979 18.2201 52.418 17.3906C53.1471 16.5612 54.0176 15.9232 55.0293 15.4766C56.041 15.0299 57.1712 14.8066 58.4199 14.8066C60.0788 14.8066 61.4779 15.1074 62.6172 15.709C63.7656 16.3105 64.6543 17.14 65.2832 18.1973C65.9212 19.2546 66.304 20.4577 66.4316 21.8066H62.3301C62.2845 21.0046 62.125 20.3255 61.8516 19.7695C61.5781 19.2044 61.1634 18.7806 60.6074 18.498C60.0605 18.2064 59.3314 18.0605 58.4199 18.0605C57.7363 18.0605 57.1393 18.1882 56.6289 18.4434C56.1185 18.6986 55.6901 19.0859 55.3438 19.6055C54.9974 20.125 54.7376 20.7812 54.5645 21.5742C54.4004 22.3581 54.3184 23.2786 54.3184 24.3359V25.7441C54.3184 26.7741 54.3958 27.681 54.5508 28.4648C54.7057 29.2396 54.9427 29.8958 55.2617 30.4336C55.5898 30.9622 56.0091 31.3633 56.5195 31.6367C57.0391 31.901 57.6634 32.0332 58.3926 32.0332C59.2493 32.0332 59.9557 31.8965 60.5117 31.623C61.0677 31.3496 61.4915 30.944 61.7832 30.4062C62.084 29.8685 62.2617 29.1986 62.3164 28.3965ZM73.0488 28.5469L81.0469 15.0938H85.1484V35H81.0469V21.5469L73.0488 35H68.9473V15.0938H73.0488V28.5469ZM101.979 23.2012V26.4004H91.5879V23.2012H101.979ZM92.8047 15.0938V35H88.7031V15.0938H92.8047ZM104.904 15.0938V35H100.816V15.0938H104.904ZM112.424 28.5469L120.422 15.0938H124.523V35H120.422V21.5469L112.424 35H108.322V15.0938H112.424V28.5469ZM132.029 28.5469L140.027 15.0938H144.129V35H140.027V21.5469L132.029 35H127.928V15.0938H132.029V28.5469ZM138.018 9.87109H140.82C140.82 10.6549 140.624 11.3522 140.232 11.9629C139.85 12.5645 139.303 13.0384 138.592 13.3848C137.881 13.722 137.042 13.8906 136.076 13.8906C134.609 13.8906 133.447 13.5169 132.59 12.7695C131.742 12.0221 131.318 11.056 131.318 9.87109H134.107C134.107 10.3451 134.253 10.7689 134.545 11.1426C134.846 11.5163 135.356 11.7031 136.076 11.7031C136.787 11.7031 137.288 11.5163 137.58 11.1426C137.872 10.7689 138.018 10.3451 138.018 9.87109ZM167.932 15.0938V18.3066H158.033V15.0938H167.932ZM170.857 15.0938V35H166.756V15.0938H170.857ZM157.514 15.0938H161.602L161.096 25.0879C161.023 26.5827 160.882 27.8815 160.672 28.9844C160.471 30.0872 160.198 31.026 159.852 31.8008C159.505 32.5664 159.077 33.1862 158.566 33.6602C158.065 34.125 157.473 34.4668 156.789 34.6855C156.105 34.8952 155.326 35 154.451 35H153.439V31.8008L153.959 31.7598C154.406 31.7142 154.798 31.5957 155.135 31.4043C155.472 31.2129 155.759 30.9258 155.996 30.543C156.242 30.1602 156.443 29.6725 156.598 29.0801C156.762 28.4785 156.889 27.7448 156.98 26.8789C157.081 26.013 157.149 25.0013 157.186 23.8438L157.514 15.0938ZM180.674 27.7812L185.568 15.0938H189.984L183.162 31.1445C182.925 31.6914 182.652 32.2155 182.342 32.7168C182.041 33.209 181.681 33.651 181.262 34.043C180.842 34.4258 180.341 34.7311 179.758 34.959C179.174 35.1777 178.477 35.2871 177.666 35.2871C177.465 35.2871 177.219 35.2826 176.928 35.2734C176.636 35.2643 176.404 35.2507 176.23 35.2324L176.203 32.0332C176.312 32.0605 176.486 32.0788 176.723 32.0879C176.96 32.0879 177.133 32.0879 177.242 32.0879C177.78 32.0879 178.204 32.0104 178.514 31.8555C178.824 31.7005 179.07 31.4818 179.252 31.1992C179.443 30.9076 179.612 30.5658 179.758 30.1738L180.674 27.7812ZM177.434 15.0938L181.973 24.9512L183.244 29.4766L180.195 29.5312L173.031 15.0938H177.434ZM205.188 15.0938V18.3066H196.219V35H192.131V15.0938H205.188Z" fill="#45536D"/>
</svg>
